<?xml version="1.0" encoding="utf-8"?>
<!-- Generator: Adobe Illustrator 18.1.1, SVG Export Plug-In . SVG Version: 6.00 Build 0)  -->
<!DOCTYPE svg PUBLIC "-//W3C//DTD SVG 1.1//EN" "http://www.w3.org/Graphics/SVG/1.1/DTD/svg11.dtd">
<svg version="1.1" id="Layer_1" xmlns="http://www.w3.org/2000/svg" xmlns:xlink="http://www.w3.org/1999/xlink" x="0px" y="0px"
	 viewBox="0 0 200 200" enable-background="new 0 0 200 200" xml:space="preserve">
<g>
	<path d="M173.4,61.3c5.1-13.6-2.1-28.9-16.1-34.2c-14-5.3-29.5,1.5-34.6,15.1c-0.2,0.4-0.3,0.8-0.4,1.3c-6.9-2-14.2-3.1-21.8-3.1
		C95,40.4,89.7,41,84.6,42C82.5,29.3,70.1,19.5,55,19.5c-16.6,0-30,11.8-30,26.3c0,9.9,6.3,18.6,15.5,23.1
		C31.4,80.5,26,94.9,26,110.5c0,38.6,33.4,70,74.5,70c41.1,0,74.5-31.4,74.5-70c0-13.5-4.1-26.2-11.2-36.9
		C167.9,70.6,171.4,66.4,173.4,61.3z M100.4,163.4c-37.5,0-64.3-17.9-64.3-53c0-15.3,5.1-28.6,14-38.7c8.3-9.4,20-16.1,33.8-19
		c5.2-1.1,10.7-1.7,16.5-1.7c7.4,0,14.3,1,20.7,2.7c14.4,4,26,12.3,33.6,23.6c6.1,9.2,9.5,20.4,9.5,33
		C164.2,145.6,137.9,163.4,100.4,163.4z"/>
	<g>
		<path d="M73.5,65.8c-15.5,0-28.2,14.1-28.2,31.4c0,17.3,12.5,40.6,28.2,31.4c13.4-7.9,28.2-14.1,28.2-31.4
			C101.6,79.8,89,65.8,73.5,65.8z M73.7,108.8c-8.4,0-15.2-6.8-15.2-15.2c0-8.4,6.8-15.2,15.2-15.2c8.4,0,15.2,6.8,15.2,15.2
			C88.9,102,82.1,108.8,73.7,108.8z"/>
		<circle cx="73.7" cy="93.6" r="8.1"/>
	</g>
	<g>
		<path d="M130.5,73.8c-13.2,0-24,12-24,26.7c0,14.8,12.6,20,24,26.7c13.3,7.9,24-12,24-26.7C154.5,85.7,143.7,73.8,130.5,73.8z
			 M131.9,108.6c-5.9,0-10.8-4.8-10.8-10.8c0-5.9,4.8-10.8,10.8-10.8c5.9,0,10.8,4.8,10.8,10.8C142.6,103.7,137.8,108.6,131.9,108.6
			z"/>
		<path d="M137.6,97.8c0,3.2-2.6,5.7-5.7,5.7c-3.2,0-5.7-2.6-5.7-5.7c0-3.2,2.6-5.7,5.7-5.7C135,92.1,137.6,94.6,137.6,97.8z"/>
	</g>
	<path fill-rule="evenodd" clip-rule="evenodd" d="M120.6,134.2c0,3.7-2.8,6.6-8,7.4c-6,0.9-3.5,7.9-10.8,7.9c-8.6,0-6.2-8-13-8.9
		c-4.1-0.5-5.8-3.2-5.8-6.4c0-6.1,8.4-6.8,18.8-6.8C112.2,127.5,120.6,128.1,120.6,134.2z"/>
</g>
</svg>
