<?xml version="1.0" encoding="utf-8"?>
<!-- Generator: Adobe Illustrator 16.0.0, SVG Export Plug-In . SVG Version: 6.00 Build 0)  -->
<!DOCTYPE svg PUBLIC "-//W3C//DTD SVG 1.1//EN" "http://www.w3.org/Graphics/SVG/1.1/DTD/svg11.dtd">
<svg version="1.1" id="Layer_1" xmlns="http://www.w3.org/2000/svg" xmlns:xlink="http://www.w3.org/1999/xlink" x="0px" y="0px"
	 width="500px" height="500px" viewBox="0 0 500 500" style="enable-background:new 0 0 500 500;" xml:space="preserve">
<g>
	<path style="fill:#A81D63;" d="M404,74.154c-10.524,0-19,15.692-19,35.261v281.17c0,19.385,8.476,35.261,19,35.261
		c10.339,0,19-15.876,19-35.261v-281.17C423,89.846,414.339,74.154,404,74.154z"/>
	<path style="fill:#A81D63;" d="M333.107,77.594c-75.877-17.539-152.185,38.585-228.062,20.862C89.169,94.949,76,104.548,76,124.487
		c0,48.554,0,97.107,0,145.662c0,19.938,13.53,43.199,29.406,46.707c75.877,17.723,151.336-38.4,227.213-20.677
		c15.689,3.323,28.38-5.907,28.38-26.03c0-48.555,0-97.108,0-145.662C361,104.548,348.797,81.287,333.107,77.594z M261.324,251.393
		l-39.795-16.615l-36.247,23.363l3.504-42.981l-33.42-27.253l41.961-9.949l15.593-40.207l22.428,36.833l43.057,2.405l-28.1,32.712
		L261.324,251.393z"/>
</g>
</svg>
